<svg width="156" height="71" viewBox="0 0 156 71" fill="none" xmlns="http://www.w3.org/2000/svg">
<path d="M17.5779 23.6279C19.091 23.2076 20.5093 22.4808 21.8354 21.4422L21.1385 18.6246C19.0829 20.8781 16.5338 22.0035 13.4858 22.0035C12.1163 22.0035 10.9014 21.7161 9.84111 21.1412C8.7808 20.5663 7.88048 19.8042 7.14016 18.8551C6.39984 17.906 5.83579 16.8077 5.45071 15.5576C5.06292 14.3101 4.87039 13.0112 4.87039 11.6634C4.87039 10.3157 5.06292 8.96249 5.45071 7.80455C5.83579 6.6439 6.39442 5.65138 7.12389 4.82157C7.85336 3.99448 8.73198 3.3572 9.75704 2.91518C10.7848 2.47316 11.9373 2.2535 13.22 2.2535C14.0824 2.2535 14.9881 2.40265 15.9372 2.70095C16.8864 2.99925 17.7162 3.46839 18.4212 4.10837C18.9744 4.59378 19.289 5.14157 19.3649 5.74901C19.4409 6.35645 19.449 6.98016 19.3812 7.62015L20.409 8.01878L22.0333 3.1484C20.8185 2.19927 19.4653 1.43725 17.9738 0.862351C16.4823 0.28745 14.8417 0 13.0546 0C11.0668 0 9.26621 0.341686 7.65269 1.02777C6.03917 1.71386 4.66429 2.63044 3.52805 3.77753C2.38909 4.92733 1.51861 6.25611 0.911164 7.7693C0.303721 9.28248 0 10.8553 0 12.4905C0 14.1257 0.319992 15.761 0.959976 17.1955C1.59996 18.6328 2.48943 19.8748 3.62838 20.9242C4.76463 21.9737 6.10154 22.7899 7.63642 23.3757C9.1713 23.9614 10.8336 24.2543 12.6234 24.2543C14.4132 24.2543 16.0647 24.0455 17.5779 23.6252V23.6279Z" fill="white"/>
<path d="M25.6289 15.9408C25.618 16.8682 25.6018 17.7956 25.5801 18.7231C25.5584 19.6505 25.5313 20.5563 25.496 21.4403C25.4635 22.3243 25.4228 23.1514 25.3794 23.9243C28.3841 23.7263 31.3535 23.626 34.2931 23.626C34.7785 23.626 35.3263 23.6369 35.9337 23.6586C36.5411 23.6802 37.1594 23.7074 37.7886 23.7426C38.4177 23.7752 39.036 23.8077 39.6434 23.843C40.2509 23.8755 40.7987 23.9135 41.2841 23.9596L42.0786 21.1095C40.8854 21.2206 39.7546 21.2966 38.6835 21.3427C37.6123 21.3861 36.5357 21.4078 35.4537 21.4078C34.5046 21.4078 33.6151 21.3915 32.7853 21.3589C31.9582 21.3264 31.1881 21.2884 30.483 21.2423C30.4396 20.5346 30.4098 19.8729 30.3989 19.2546C30.3881 18.6363 30.3718 18.0126 30.3501 17.3835C30.3284 16.7543 30.3176 16.1089 30.3176 15.4445V12.8276C30.9576 12.7842 31.603 12.7517 32.2565 12.7273C32.9073 12.7056 33.5202 12.6948 34.0951 12.6948C34.9792 12.6948 35.8957 12.7219 36.8449 12.7788C37.794 12.8331 38.6889 12.9063 39.5296 12.9931L40.2916 10.1782C39.2313 10.2894 38.2252 10.3653 37.276 10.4114C36.3269 10.4548 35.2775 10.4765 34.1277 10.4765C33.5311 10.4982 32.9019 10.5036 32.2402 10.4928C31.5786 10.4819 30.9359 10.4548 30.3176 10.4087C30.3176 8.97417 30.3338 7.68607 30.3664 6.54983C30.3989 5.41358 30.4505 4.22582 30.5155 2.98924C31.3318 2.92415 32.0396 2.87805 32.6362 2.85636C33.2328 2.83467 33.9297 2.82382 34.7242 2.82382C35.6734 2.82382 36.6171 2.85094 37.5581 2.90788C38.4964 2.96212 39.5621 3.04619 40.7553 3.15737L41.5498 0.242188C40.5546 0.331677 39.4129 0.413031 38.1194 0.491673C36.8286 0.570315 35.6273 0.60828 34.5236 0.60828C34.0165 0.60828 33.3412 0.602856 32.5033 0.592009C31.6626 0.581162 30.7921 0.564891 29.8864 0.543197C28.9807 0.521503 28.1183 0.494385 27.3021 0.459131C26.4858 0.42659 25.8431 0.399472 25.3794 0.375066C25.4228 1.14793 25.4635 1.97774 25.496 2.85907C25.5285 3.74312 25.5557 4.64343 25.5801 5.56002C25.6018 6.47661 25.618 7.39862 25.6289 8.32605C25.6397 9.25349 25.6452 10.1484 25.6452 11.0107V13.2642C25.6452 14.1266 25.6397 15.0215 25.6289 15.9489V15.9408Z" fill="white"/>
<path d="M58.6289 20.4147C59.0384 20.9679 59.4397 21.5239 59.8383 22.0879C60.237 22.652 60.6546 23.254 61.0966 23.894L65.8667 23.7286C65.7772 22.1611 65.7067 20.4527 65.6524 18.6087C65.5982 16.7647 65.5684 14.9803 65.5684 13.2583V11.0048C65.5684 10.1425 65.5738 9.24756 65.5846 8.32013C65.5955 7.39269 65.6172 6.47068 65.6497 5.5541C65.6823 4.63751 65.7148 3.73719 65.7501 2.85315C65.7826 1.9691 65.8206 1.142 65.8667 0.369141L62.8511 0.53456C62.9406 2.10198 63.0111 3.81041 63.0654 5.65443C63.1196 7.49845 63.1494 9.28282 63.1494 11.0048V15.6447C63.1494 15.9972 63.144 16.3633 63.1332 16.7375C63.1223 17.1145 63.1169 17.5104 63.1169 17.9307L62.222 16.903C61.8912 16.5043 61.5603 16.103 61.2268 15.6935C60.8959 15.284 60.576 14.8881 60.2668 14.5003C59.9577 14.1152 59.6919 13.7654 59.4722 13.4563L54.8324 7.36015C54.3009 6.67678 53.8263 6.04493 53.4087 5.47274C52.9883 4.89784 52.5816 4.34192 52.1829 3.79956C51.7843 3.25992 51.3884 2.71213 50.9897 2.15893C50.5911 1.60572 50.1735 1.01184 49.7315 0.369141L44.9614 0.53456C45.0482 2.10198 45.1214 3.81041 45.1757 5.65443C45.2299 7.49845 45.2597 9.28282 45.2597 11.0048V13.2583C45.2597 14.1207 45.2543 15.0156 45.2435 15.943C45.2326 16.8704 45.2109 17.7924 45.1784 18.709C45.1458 19.6256 45.1133 20.5259 45.078 21.41C45.0455 22.294 45.0048 23.1211 44.9614 23.894L47.9769 23.7286C47.8875 22.1611 47.8169 20.4527 47.7627 18.6087C47.7085 16.7647 47.6786 14.9803 47.6786 13.2583V8.68622C47.6786 8.02454 47.6895 7.27337 47.7112 6.43272C48.1532 6.93982 48.5329 7.37642 48.8556 7.74252C49.1756 8.1059 49.4739 8.46114 49.7505 8.80283C50.0271 9.14451 50.3091 9.49976 50.5965 9.86314C50.884 10.2265 51.2257 10.6631 51.6243 11.1729L55.9306 16.8053C56.4594 17.4914 56.9421 18.126 57.3706 18.7117C57.8018 19.2975 58.2194 19.867 58.6289 20.4175V20.4147Z" fill="white"/>
<path d="M71.9491 2.88575C72.6217 2.86406 73.2969 2.84779 73.9694 2.83694C74.6419 2.82609 75.2901 2.82067 75.9084 2.82067C75.9301 3.57184 75.9517 4.28504 75.9734 4.95757C75.9951 5.6328 76.0114 6.2999 76.0222 6.96158C76.0331 7.62326 76.0385 8.30935 76.0385 9.01713V13.2584C76.0385 14.1207 76.0331 15.0156 76.0222 15.9431C76.0114 16.8705 75.9951 17.7925 75.9734 18.7091C75.9517 19.6257 75.9246 20.526 75.8894 21.41C75.8568 22.2941 75.827 23.1212 75.808 23.894L81.0418 23.7286C80.9523 22.1612 80.8818 20.4528 80.8276 18.6087C80.7733 16.7647 80.7435 14.9804 80.7435 13.2584V11.3032C80.7435 9.77914 80.7543 8.33375 80.776 6.96158C80.7977 5.59213 80.8411 4.21182 80.9089 2.82067C82.1021 2.82067 83.26 2.84236 84.3881 2.88575C85.5135 2.92914 86.6525 3.00778 87.7996 3.11897L88.6945 0.236328C88.0084 0.279717 87.2572 0.325817 86.441 0.369206C85.6247 0.412595 84.7786 0.453272 83.9054 0.485813C83.0322 0.518355 82.159 0.548185 81.2886 0.569879C80.4154 0.591573 79.5937 0.602421 78.8208 0.602421C78.048 0.602421 77.2344 0.591573 76.3178 0.569879C75.4012 0.548185 74.4955 0.521067 73.6006 0.485813C72.7057 0.453272 71.8569 0.415307 71.0488 0.369206C70.2434 0.325817 69.5736 0.282429 69.0448 0.236328L68.1499 3.11897C68.7004 3.07558 69.3051 3.03219 69.956 2.98609C70.6068 2.9427 71.2712 2.91016 71.9437 2.88575H71.9491Z" fill="white"/>
<path d="M100.542 17.1656C100.841 17.6727 101.155 18.226 101.486 18.8225C102.061 19.8612 102.546 20.7778 102.945 21.5723C103.344 22.3669 103.729 23.1506 104.106 23.9234L109.573 23.7255C108.911 22.7302 108.252 21.7377 107.601 20.7425C106.95 19.7473 106.327 18.7331 105.73 17.6944C105.378 17.0978 105.079 16.5853 104.835 16.1541C104.591 15.723 104.355 15.3053 104.122 14.8959C103.889 14.4864 103.647 14.0498 103.393 13.5861C103.138 13.1223 102.845 12.5583 102.514 11.8966C103.111 11.677 103.707 11.3732 104.304 10.9855C104.9 10.6004 105.432 10.1529 105.896 9.64311C106.359 9.13601 106.736 8.56111 107.021 7.92112C107.308 7.28114 107.452 6.59506 107.452 5.86558C107.452 4.71849 107.154 3.77207 106.557 3.03175C105.961 2.29143 105.209 1.71653 104.304 1.30976C103.398 0.900283 102.403 0.620967 101.321 0.463683C100.239 0.309111 99.2218 0.230469 98.2727 0.230469C97.9202 0.230469 97.4402 0.235892 96.8327 0.24674C96.2253 0.257587 95.569 0.284705 94.8613 0.330805L92.7732 0.431142C92.0871 0.452836 91.4932 0.485378 90.9834 0.531478C91.0702 2.0989 91.1434 3.80733 91.1976 5.65135C91.2519 7.49537 91.2817 9.27973 91.2817 11.0017V13.2552C91.2817 14.1176 91.2763 15.0125 91.2654 15.9399C91.2546 16.8673 91.2329 17.7894 91.2003 18.7059C91.1678 19.6225 91.1353 20.5228 91.1 21.4069C91.0675 22.2909 91.0268 23.118 90.9834 23.8909L96.2172 23.7255C96.1521 22.1581 96.0897 20.4496 96.0355 18.6056C95.9812 16.7616 95.9541 14.9772 95.9541 13.2552V11.0017C95.9541 9.4777 95.965 8.03502 95.9867 6.67641C96.0084 5.3178 96.0517 3.94292 96.1195 2.55177C96.4938 2.53007 96.8165 2.51922 97.0795 2.51922H97.7764C99.2354 2.51922 100.382 2.85549 101.223 3.53073C102.064 4.20596 102.481 5.09272 102.481 6.19913C102.481 7.50351 102.156 8.56382 101.505 9.38007C100.854 10.1963 99.7994 10.7278 98.3405 10.9692L97.6436 12.6586C98.0178 13.2118 98.3676 13.7298 98.6876 14.2152C99.0076 14.7006 99.3222 15.186 99.6313 15.6741C99.9405 16.1596 100.244 16.6585 100.542 17.1656Z" fill="white"/>
<path d="M127.794 15.375C128.434 16.9669 129.014 18.4231 129.532 19.7492C130.05 21.0752 130.565 22.4555 131.072 23.8901L136.604 23.7247C136.273 23.0413 135.913 22.2793 135.528 21.4386C135.14 20.5979 134.749 19.7329 134.351 18.838C133.952 17.9431 133.562 17.0536 133.174 16.1696C132.786 15.2855 132.439 14.4584 132.13 13.6856L130.473 9.57721C129.169 6.37458 127.989 3.30482 126.929 0.365234L122.324 0.530654C121.771 1.9896 121.196 3.50278 120.602 5.0702C120.005 6.63762 119.42 8.13996 118.845 9.57721L117.22 13.6856C116.911 14.4801 116.564 15.3262 116.176 16.2211C115.789 17.116 115.398 18 114.999 18.8732C114.601 19.7464 114.205 20.6007 113.806 21.4413C113.408 22.282 113.044 23.044 112.713 23.7274L115.927 23.8928C116.48 22.2793 117.009 20.8013 117.519 19.4536C118.026 18.1058 118.568 16.7472 119.143 15.3777C120.005 15.3127 120.751 15.272 121.38 15.2611C122.009 15.2503 122.712 15.2449 123.485 15.2449C124.103 15.2449 124.8 15.2557 125.573 15.2774C126.346 15.2991 127.086 15.3316 127.794 15.3777V15.375ZM123.487 13.0239C122.98 13.0239 122.432 13.0131 121.847 12.9914C121.261 12.9697 120.691 12.9371 120.141 12.891L121.169 10.3718C121.589 9.40094 121.98 8.46266 122.346 7.55421C122.709 6.64847 123.081 5.75357 123.455 4.86953C123.721 5.44443 123.951 5.95153 124.152 6.39356C124.35 6.83558 124.534 7.25591 124.7 7.65183C124.865 8.05047 125.03 8.45724 125.196 8.87756C125.361 9.29789 125.565 9.7833 125.809 10.3365L126.836 12.8883C126.262 12.9317 125.722 12.967 125.212 12.9886C124.702 13.0103 124.13 13.0212 123.49 13.0212L123.487 13.0239Z" fill="white"/>
<path d="M151.519 21.3422C150.391 21.3856 149.276 21.4073 148.173 21.4073C147.421 21.4073 146.697 21.391 146.003 21.3584C145.306 21.3259 144.596 21.2744 143.866 21.2093C143.823 20.5259 143.793 19.867 143.785 19.2378C143.774 18.6087 143.758 17.985 143.736 17.3667C143.714 16.7484 143.704 16.1084 143.704 15.444V11.0048C143.704 10.1425 143.709 9.24756 143.72 8.32013C143.731 7.39269 143.752 6.47068 143.785 5.5541C143.817 4.63751 143.85 3.73719 143.885 2.85315C143.918 1.9691 143.956 1.142 144.002 0.369141L138.768 0.53456C138.833 2.10198 138.896 3.81041 138.95 5.65443C139.004 7.49845 139.031 9.28282 139.031 11.0048V13.2583C139.031 14.1207 139.026 15.0156 139.015 15.943C139.004 16.8704 138.982 17.7924 138.95 18.709C138.917 19.6256 138.885 20.5259 138.849 21.41C138.817 22.294 138.79 23.1211 138.768 23.894C139.451 23.8506 140.238 23.8099 141.119 23.7774C142.003 23.7448 142.876 23.7177 143.736 23.6933C144.598 23.6716 145.409 23.6553 146.171 23.6445C146.933 23.6336 147.546 23.6282 148.01 23.6282C149.002 23.6282 150.093 23.6553 151.275 23.7123C152.457 23.7665 153.534 23.8397 154.505 23.9265L155.432 21.109C153.951 21.2201 152.65 21.2961 151.522 21.3422H151.519Z" fill="white"/>
<path d="M34.2772 54.2472C33.8894 53.4065 33.4989 52.5415 33.1003 51.6466C32.7017 50.7517 32.3112 49.8622 31.9234 48.9782C31.5356 48.0941 31.1885 47.267 30.8794 46.4942L29.2224 42.3858C27.9181 39.1832 26.7384 36.1134 25.6781 33.1738L21.0735 33.3392C20.5203 34.7982 19.9481 36.3114 19.3515 37.8788C18.7549 39.4462 18.1692 40.9485 17.5943 42.3858L15.9699 46.4942C15.6608 47.2887 15.3136 48.1348 14.9259 49.0297C14.5381 49.9246 14.1476 50.8086 13.7489 51.6791C13.3503 52.5523 12.9544 53.4065 12.5557 54.2472C12.1571 55.0879 11.7937 55.8499 11.4629 56.5332L14.6764 56.6987C15.2296 55.0879 15.7584 53.6072 16.2655 52.2595C16.7726 50.9117 17.3149 49.5531 17.8898 48.1836C18.7522 48.1185 19.4979 48.0779 20.1271 48.067C20.7562 48.0562 21.4586 48.0507 22.2314 48.0507C22.8497 48.0507 23.5439 48.0616 24.3195 48.0833C25.0924 48.105 25.8327 48.1375 26.5405 48.1836C27.1805 49.7754 27.7608 51.2317 28.2787 52.5578C28.7967 53.8838 29.3119 55.2641 29.819 56.6987L35.3511 56.5332C35.0203 55.8499 34.6596 55.0879 34.2745 54.2472H34.2772ZM23.9561 45.7972C23.449 45.8189 22.8741 45.8298 22.2341 45.8298C21.727 45.8298 21.1793 45.8189 20.5935 45.7972C20.0078 45.7755 19.4383 45.743 18.8878 45.6969L19.9156 43.1776C20.3359 42.2068 20.7264 41.2685 21.0925 40.3601C21.4559 39.4544 21.8274 38.5595 22.2016 37.6754C22.4674 38.2503 22.6979 38.7574 22.8985 39.1994C23.0965 39.6415 23.2782 40.0618 23.4463 40.4577C23.6117 40.8563 23.7772 41.2658 23.9426 41.6834C24.108 42.1038 24.3114 42.5892 24.5554 43.1424L25.5832 45.6942C25.0083 45.7376 24.4687 45.7728 23.9588 45.7945L23.9561 45.7972Z" fill="white"/>
<path d="M53.7747 33.34L50.6263 33.1746C50.0514 34.9183 49.5118 36.5589 49.002 38.0938C48.4949 39.6287 47.9633 41.1581 47.4128 42.6821L45.9539 46.56C45.577 47.5091 45.2353 48.404 44.9261 49.2447C44.617 50.0854 44.2861 50.9124 43.9309 51.7287C43.7329 51.3084 43.5594 50.9341 43.4184 50.6006C43.2746 50.2698 43.1309 49.9199 42.9872 49.5565C42.8435 49.1932 42.6835 48.7837 42.5072 48.3308C42.3309 47.8779 42.1194 47.3193 41.8781 46.6576L40.4191 42.6821C39.8225 41.0713 39.2476 39.4578 38.6971 37.8443C38.1439 36.2335 37.6368 34.6742 37.1731 33.1719L31.5732 33.3373C31.8824 33.999 32.2187 34.7556 32.5847 35.6071C32.9481 36.4586 33.3196 37.3345 33.6939 38.2402C34.0681 39.146 34.4396 40.0463 34.803 40.9412C35.1664 41.8361 35.4945 42.6794 35.7792 43.4767L37.2029 47.4197C37.7778 48.9654 38.3582 50.5165 38.9412 52.0758C39.5269 53.6324 40.072 55.1727 40.5818 56.6967L44.956 56.5313C45.4631 55.029 45.9892 53.532 46.5288 52.0406C47.0684 50.5491 47.6488 48.9762 48.2671 47.3193L49.6908 43.4767C49.9999 42.6821 50.3253 41.8361 50.667 40.9412C51.0087 40.0463 51.3558 39.1514 51.711 38.2565C52.0636 37.3616 52.4107 36.4965 52.7551 35.6559C53.0968 34.8152 53.433 34.0424 53.7666 33.3373L53.7747 33.34Z" fill="white"/>
<path d="M69.5306 54.1462C68.4595 54.1923 67.3829 54.2113 66.3009 54.2113C65.3518 54.2113 64.4623 54.195 63.6325 54.1624C62.8054 54.1299 62.0352 54.0919 61.3302 54.0458C61.2868 53.3381 61.2569 52.6764 61.2461 52.0581C61.2353 51.4398 61.219 50.8161 61.1973 50.1869C61.1756 49.5578 61.1647 48.9124 61.1647 48.248V45.6311C61.8047 45.5877 62.4501 45.5552 63.1037 45.5308C63.7545 45.5091 64.3674 45.4983 64.9423 45.4983C65.8263 45.4983 66.7429 45.5254 67.692 45.5796C68.6412 45.6366 69.5361 45.7071 70.3767 45.7965L71.1387 42.979C70.0784 43.0902 69.0723 43.1661 68.1232 43.2122C67.1741 43.2583 66.1246 43.2773 64.9748 43.2773C64.3782 43.299 63.7491 43.3044 63.0874 43.2936C62.4257 43.2827 61.783 43.2556 61.1647 43.2095C61.1647 41.775 61.181 40.4869 61.2136 39.3506C61.2461 38.2144 61.2976 37.0266 61.3627 35.79C62.179 35.7249 62.8867 35.6788 63.4833 35.6571C64.0799 35.6354 64.7769 35.6246 65.5714 35.6246C66.5205 35.6246 67.4642 35.6517 68.4052 35.7087C69.3435 35.7629 70.4093 35.847 71.6025 35.9581L72.397 33.043C71.4018 33.1325 70.2601 33.2138 68.9666 33.2925C67.6758 33.3711 66.4744 33.4091 65.3707 33.4091C64.8636 33.4091 64.1884 33.4036 63.3505 33.3928C62.5098 33.3819 61.6393 33.3657 60.7336 33.344C59.8278 33.3223 58.9655 33.2952 58.1492 33.2599C57.333 33.2274 56.6903 33.2003 56.2266 33.1786C56.27 33.9514 56.3106 34.7812 56.3432 35.6626C56.3757 36.5466 56.4028 37.4469 56.4272 38.3635C56.4489 39.2801 56.4652 40.2021 56.476 41.1295C56.4869 42.057 56.4923 42.9519 56.4923 43.8142V46.0677C56.4923 46.9301 56.4869 47.825 56.476 48.7524C56.4652 49.6798 56.4489 50.6073 56.4272 51.5347C56.4055 52.4621 56.3784 53.3679 56.3432 54.2519C56.3106 55.136 56.27 55.9631 56.2266 56.7359C59.2312 56.538 62.2007 56.4376 65.1402 56.4376C65.6257 56.4376 66.1734 56.4485 66.7809 56.4702C67.3883 56.4919 68.0066 56.519 68.6357 56.5542C69.2649 56.5868 69.8832 56.6193 70.4906 56.6546C71.0981 56.6871 71.6458 56.7251 72.1312 56.7712L72.9258 53.9211C71.7326 54.0323 70.6018 54.1082 69.5306 54.1543V54.1462Z" fill="white"/>
<path d="M91.943 56.6987L96.7131 56.5332C96.6236 54.9658 96.5531 53.2601 96.4961 51.4134C96.4419 49.5694 96.4148 47.785 96.4148 46.063V43.8095C96.4148 42.9471 96.4202 42.0522 96.431 41.1248C96.4419 40.1974 96.4636 39.2754 96.4961 38.3588C96.5287 37.4422 96.5612 36.5419 96.5965 35.6578C96.629 34.7738 96.667 33.9467 96.7131 33.1738L93.6976 33.3392C93.7843 34.9067 93.8576 36.6151 93.9118 38.4591C93.966 40.3031 93.9959 42.0875 93.9959 43.8095V48.4494C93.9959 48.8019 93.9904 49.168 93.9796 49.5422C93.9687 49.9192 93.9633 50.3151 93.9633 50.7354L93.0684 49.7076C92.7376 49.309 92.4067 48.9077 92.0759 48.4982C91.7451 48.0887 91.4251 47.6928 91.1159 47.305C90.8068 46.9199 90.541 46.5701 90.3214 46.261L85.6815 40.1648C85.1527 39.4815 84.6754 38.8523 84.2578 38.2774C83.8375 37.7025 83.4307 37.1466 83.0321 36.6043C82.6334 36.0619 82.2375 35.5168 81.8389 34.9636C81.4402 34.4104 81.0226 33.8165 80.5806 33.1738L75.8105 33.3392C75.8973 34.9067 75.9705 36.6151 76.0248 38.4591C76.079 40.3031 76.1088 42.0875 76.1088 43.8095V46.063C76.1088 46.9254 76.1034 47.8202 76.0926 48.7477C76.0817 49.6751 76.06 50.5971 76.0275 51.5137C75.9949 52.4303 75.9624 53.3306 75.9272 54.2147C75.8946 55.0987 75.8539 55.9258 75.8105 56.6987L78.8261 56.5332C78.7366 54.9658 78.6661 53.2601 78.6091 51.4134C78.5549 49.5694 78.5278 47.785 78.5278 46.063V41.4909C78.5278 40.8292 78.5386 40.0781 78.5603 39.2374C79.0023 39.7472 79.382 40.1811 79.7047 40.5472C80.0247 40.9106 80.323 41.2658 80.5996 41.6075C80.8762 41.9492 81.1582 42.3044 81.4457 42.6678C81.7331 43.0312 82.0748 43.4678 82.4734 43.9776L86.7798 49.61C87.3086 50.2961 87.7913 50.9307 88.2197 51.5137C88.6509 52.0995 89.0685 52.6689 89.478 53.2194C89.8875 53.7726 90.2888 54.3286 90.6875 54.8926C91.0861 55.4567 91.5037 56.0587 91.9457 56.6987H91.943Z" fill="white"/>
<path d="M111.691 57.0632C113.283 57.0632 114.68 56.8409 115.884 56.4016C117.088 55.9595 118.086 55.3521 118.883 54.5792C119.677 53.8064 120.274 52.8789 120.673 51.7969C121.071 50.7149 121.269 49.5434 121.269 48.2852V45.7008C121.269 44.8385 121.275 43.8514 121.286 42.7341C121.296 41.6196 121.313 40.4806 121.334 39.3227C121.356 38.162 121.383 37.042 121.416 35.96C121.448 34.878 121.486 33.9506 121.532 33.1777L118.549 33.3432C118.593 34.116 118.631 35.038 118.666 36.1092C118.699 37.1803 118.731 38.284 118.766 39.423C118.799 40.562 118.821 41.6765 118.831 42.7694C118.842 43.8622 118.848 44.8412 118.848 45.7008V48.2852C118.848 49.2126 118.704 50.0749 118.417 50.8695C118.129 51.6641 117.709 52.3556 117.158 52.9413C116.605 53.5271 115.933 53.9853 115.138 54.3162C114.343 54.647 113.438 54.8124 112.421 54.8124C110.411 54.8124 108.836 54.2213 107.699 53.0389C106.561 51.8566 105.994 50.2729 105.994 48.2852V45.7008C105.994 44.8385 105.999 43.8514 106.01 42.7341C106.021 41.6196 106.037 40.4806 106.059 39.3227C106.081 38.162 106.108 37.042 106.14 35.96C106.173 34.878 106.211 33.9506 106.257 33.1777L100.988 33.3432C101.031 34.116 101.072 35.038 101.104 36.1092C101.137 37.1803 101.169 38.284 101.205 39.423C101.237 40.562 101.259 41.6765 101.27 42.7694C101.281 43.8622 101.286 44.8412 101.286 45.7008V48.2852C101.286 49.6329 101.489 50.8478 101.899 51.9298C102.308 53.0118 102.932 53.9338 103.77 54.6958C104.611 55.4579 105.687 56.0436 107 56.4531C108.312 56.8626 109.877 57.0659 111.689 57.0659L111.691 57.0632Z" fill="white"/>
<path d="M135.546 54.2152C134.597 54.2152 133.707 54.1989 132.878 54.1663C132.048 54.1338 131.28 54.0958 130.575 54.0497C130.532 53.342 130.502 52.6803 130.491 52.062C130.48 51.4437 130.464 50.82 130.442 50.1909C130.421 49.5617 130.41 48.9163 130.41 48.2519V45.635C131.05 45.5916 131.695 45.5591 132.349 45.5347C133 45.513 133.612 45.5022 134.187 45.5022C135.071 45.5022 135.988 45.5293 136.937 45.5835C137.886 45.6405 138.781 45.711 139.622 45.8005L140.384 42.9829C139.324 43.0941 138.317 43.17 137.368 43.2161C136.419 43.2622 135.37 43.2812 134.22 43.2812C133.623 43.3029 132.994 43.3083 132.333 43.2975C131.671 43.2866 131.028 43.2595 130.41 43.2134C130.41 41.7789 130.426 40.4908 130.459 39.3545C130.491 38.2183 130.54 37.0305 130.608 35.7939C131.424 35.7288 132.132 35.6827 132.728 35.661C133.325 35.6394 134.022 35.6285 134.817 35.6285C135.766 35.6285 136.709 35.6556 137.65 35.7126C138.589 35.7668 139.654 35.8509 140.848 35.9621L141.642 33.0469C140.647 33.1364 139.505 33.2177 138.212 33.2964C136.921 33.375 135.722 33.413 134.616 33.413C134.106 33.413 133.434 33.4075 132.596 33.3967C131.755 33.3858 130.884 33.3696 129.979 33.3479C129.073 33.3262 128.211 33.2991 127.394 33.2638C126.578 33.2313 125.938 33.2042 125.472 33.1825C125.515 33.9553 125.556 34.7851 125.588 35.6665C125.621 36.5505 125.648 37.4508 125.672 38.3674C125.694 39.284 125.71 40.206 125.721 41.1335C125.732 42.0609 125.737 42.9558 125.737 43.8181V46.0716C125.737 46.934 125.732 47.8289 125.721 48.7563C125.71 49.6837 125.694 50.6112 125.672 51.5386C125.651 52.466 125.624 53.3718 125.588 54.2558C125.556 55.1399 125.515 55.967 125.472 56.7398C128.476 56.5419 131.446 56.4415 134.385 56.4415C134.871 56.4415 135.419 56.4524 136.026 56.4741C136.633 56.4958 137.252 56.5229 137.881 56.5582C138.51 56.5907 139.128 56.6232 139.736 56.6585C140.343 56.691 140.891 56.729 141.376 56.7751L142.171 53.925C140.978 54.0362 139.847 54.1121 138.776 54.1582C137.705 54.2043 136.628 54.2233 135.546 54.2233V54.2152Z" fill="white"/>
<path d="M35.3642 68.7816L32.9019 65.7227H32.4219V69.8283H33.0076V66.7694L35.4699 69.8283H35.9526V65.7227H35.3642V68.7816Z" fill="white"/>
<path d="M38.6269 65.7227L36.7666 69.8283H37.3713L37.8215 68.8033H40.0045L40.4546 69.8283H41.0702L39.2045 65.7227H38.6242H38.6269ZM38.0303 68.3314L38.9143 66.3165L39.7984 68.3314H38.0276H38.0303Z" fill="white"/>
<path d="M45.77 65.7227L44.0806 68.608L42.3667 65.7227H41.8867V69.8283H42.4508V66.8535L43.9341 69.3293H44.2026L45.6887 66.8345L45.6941 69.8283H46.2554L46.25 65.7227H45.77Z" fill="white"/>
<path d="M48.9321 65.7227L47.0718 69.8283H47.6765L48.1267 68.8033H50.3097L50.7598 69.8283H51.3754L49.5097 65.7227H48.9294H48.9321ZM48.3355 68.3314L49.2195 66.3165L50.1036 68.3314H48.3328H48.3355Z" fill="white"/>
<path d="M55.1359 68.7816L52.6709 65.7227H52.1909V69.8283H52.7767V66.7694L55.2417 69.8283H55.7217V65.7227H55.1359V68.7816Z" fill="white"/>
<path d="M57.8698 66.6451C58.0162 66.5041 58.1898 66.3956 58.3904 66.317C58.5911 66.2383 58.8108 66.2004 59.044 66.2004C59.2772 66.2004 59.4887 66.2383 59.6867 66.3142C59.8846 66.3902 60.0663 66.5095 60.2345 66.6749L60.5978 66.3115C60.4107 66.1 60.1802 65.9427 59.9118 65.837C59.6433 65.7312 59.345 65.6797 59.0196 65.6797C58.6942 65.6797 58.4067 65.7312 58.141 65.8343C57.8752 65.9373 57.6447 66.0837 57.4467 66.2736C57.2488 66.4634 57.0969 66.6858 56.9857 66.938C56.8773 67.1929 56.8203 67.4722 56.8203 67.7759C56.8203 68.0796 56.8745 68.3617 56.9857 68.6138C57.0942 68.8688 57.2488 69.0911 57.444 69.2782C57.6393 69.4681 57.8698 69.6145 58.1355 69.7175C58.4013 69.8206 58.6915 69.8721 59.0087 69.8721C59.2989 69.8721 59.5782 69.8287 59.8494 69.7392C60.1206 69.6525 60.3592 69.5223 60.5626 69.3487V67.7488H59.9985V69.083C59.8928 69.1535 59.7816 69.2077 59.6677 69.2484C59.467 69.3162 59.2555 69.3515 59.0386 69.3515C58.8053 69.3515 58.5857 69.3135 58.3877 69.2349C58.1871 69.1562 58.0162 69.045 57.8698 68.904C57.7233 68.7603 57.6094 68.5922 57.5308 68.3996C57.4494 68.2071 57.4115 67.9983 57.4115 67.7759C57.4115 67.5535 57.4522 67.3393 57.5308 67.1468C57.6122 66.9542 57.7233 66.7861 57.8698 66.6451Z" fill="white"/>
<path d="M63.1279 65.7227L61.2676 69.8283H61.8723L62.3225 68.8033H64.5055L64.9556 69.8283H65.5712L63.7055 65.7227H63.1252H63.1279ZM62.5313 68.3314L63.4153 66.3165L64.2994 68.3314H62.5286H62.5313Z" fill="white"/>
<path d="M69.3324 68.7816L66.8701 65.7227H66.3901V69.8283H66.9759V66.7694L69.4382 69.8283H69.9209V65.7227H69.3324V68.7816Z" fill="white"/>
<path d="M72.3589 70.4146H72.8687L74.8049 64.8906H74.2951L72.3589 70.4146Z" fill="white"/>
<path d="M79.5668 66.8921C79.3335 66.7592 79.0624 66.6914 78.7586 66.6914C78.501 66.6914 78.2651 66.7511 78.0509 66.8677C77.9044 66.9491 77.7797 67.0603 77.6739 67.1958V65.4766H77.1099V69.829H77.6495V69.3354C77.7553 69.4819 77.8854 69.5985 78.04 69.6853C78.2542 69.8046 78.4929 69.8642 78.7586 69.8642C79.0624 69.8642 79.3335 69.7965 79.5668 69.6636C79.8 69.5307 79.9871 69.3463 80.1227 69.1077C80.2583 68.869 80.3288 68.5924 80.3288 68.2751C80.3288 67.9579 80.261 67.6813 80.1227 67.4453C79.9871 67.2094 79.8 67.025 79.5668 66.8921ZM79.6237 68.8527C79.5315 69.0182 79.4068 69.1456 79.2495 69.2378C79.0922 69.3273 78.9132 69.3734 78.7125 69.3734C78.5119 69.3734 78.341 69.3273 78.181 69.2378C78.0237 69.1483 77.8963 69.0209 77.8068 68.8527C77.7146 68.6873 77.6685 68.4948 77.6685 68.2751C77.6685 68.0555 77.7146 67.8602 77.8068 67.6975C77.899 67.5348 78.0237 67.4101 78.181 67.3206C78.3383 67.2311 78.5173 67.185 78.7125 67.185C78.9078 67.185 79.0895 67.2311 79.2495 67.3206C79.4068 67.4101 79.5342 67.5375 79.6237 67.6975C79.7159 67.8602 79.762 68.0528 79.762 68.2751C79.762 68.4975 79.7159 68.6873 79.6237 68.8527Z" fill="white"/>
<path d="M82.3517 69.2047L81.267 66.7207H80.6813L82.0534 69.8203L81.9558 70.0399C81.8772 70.2189 81.7931 70.3437 81.7036 70.4142C81.6141 70.4847 81.5002 70.5199 81.3647 70.5199C81.2589 70.5199 81.1586 70.5009 81.0664 70.4603C80.9714 70.4223 80.8874 70.3654 80.8087 70.2894L80.5674 70.7125C80.6677 70.8074 80.7897 70.8779 80.9308 70.9267C81.0718 70.9755 81.2155 70.9999 81.3647 70.9999C81.5246 70.9999 81.6711 70.9728 81.804 70.9213C81.9368 70.8697 82.0589 70.7803 82.1701 70.6555C82.2812 70.5308 82.3816 70.3572 82.4711 70.1403L83.9788 66.7207H83.4283L82.3545 69.2047H82.3517Z" fill="white"/>
<path d="M85.9829 66.2325H87.3903V69.8283H87.9707V66.2325H89.3781V65.7227H85.9829V66.2325Z" fill="white"/>
<path d="M93.1963 65.7227H92.5564L91.4174 67.2982L90.2703 65.7227H89.6005L91.0513 67.724L89.5083 69.8283H90.1835L91.3984 68.1362L92.6269 69.8283H93.3021L91.751 67.705L93.1963 65.7227Z" fill="white"/>
<path d="M93.4321 66.2325H94.8396V69.8283H95.4199V66.2325H96.8273V65.7227H93.4321V66.2325Z" fill="white"/>
<path d="M100.166 66.6451C100.312 66.5041 100.486 66.3956 100.686 66.317C100.887 66.2383 101.107 66.2004 101.34 66.2004C101.573 66.2004 101.785 66.2383 101.983 66.3142C102.181 66.3902 102.362 66.5095 102.53 66.6749L102.894 66.3115C102.707 66.1 102.476 65.9427 102.208 65.837C101.939 65.7312 101.641 65.6797 101.315 65.6797C100.99 65.6797 100.703 65.7312 100.437 65.8343C100.171 65.9373 99.9379 66.0837 99.7426 66.2736C99.5447 66.4634 99.3928 66.6858 99.2816 66.938C99.1732 67.1929 99.1162 67.4722 99.1162 67.7759C99.1162 68.0796 99.1704 68.3617 99.2816 68.6138C99.3901 68.8688 99.5447 69.0911 99.7399 69.2782C99.9352 69.4681 100.166 69.6145 100.431 69.7175C100.697 69.8206 100.987 69.8721 101.305 69.8721C101.595 69.8721 101.874 69.8287 102.145 69.7392C102.416 69.6525 102.655 69.5223 102.858 69.3487V67.7488H102.294V69.083C102.189 69.1535 102.077 69.2077 101.964 69.2484C101.763 69.3162 101.551 69.3515 101.334 69.3515C101.101 69.3515 100.884 69.3135 100.684 69.2349C100.486 69.1562 100.312 69.045 100.166 68.904C100.019 68.7603 99.9053 68.5922 99.8267 68.3996C99.7453 68.2071 99.7074 67.9983 99.7074 67.7759C99.7074 67.5535 99.7481 67.3393 99.8267 67.1468C99.9053 66.9542 100.019 66.7861 100.166 66.6451Z" fill="white"/>
<path d="M106.709 68.41C106.964 68.2961 107.159 68.1334 107.295 67.9192C107.43 67.705 107.501 67.4501 107.501 67.1545C107.501 66.8589 107.433 66.6013 107.295 66.387C107.156 66.1728 106.961 66.0074 106.709 65.8935C106.454 65.7796 106.148 65.7227 105.787 65.7227H104.187V69.8283H104.773V68.5782H105.787C105.876 68.5782 105.963 68.5755 106.047 68.5673L106.931 69.8283H107.571L106.595 68.4507C106.633 68.4372 106.674 68.4236 106.709 68.4073V68.41ZM105.771 68.0819H104.773V66.2352H105.771C106.145 66.2352 106.43 66.3165 106.625 66.4765C106.817 66.6365 106.915 66.8643 106.915 67.1572C106.915 67.4501 106.817 67.6779 106.625 67.8406C106.432 68.0033 106.148 68.0846 105.771 68.0846V68.0819Z" fill="white"/>
<path d="M112.068 66.2716C111.87 66.0818 111.639 65.9354 111.376 65.8323C111.113 65.7293 110.823 65.6777 110.511 65.6777C110.199 65.6777 109.904 65.732 109.638 65.835C109.372 65.9408 109.142 66.0872 108.946 66.277C108.751 66.4669 108.599 66.6892 108.488 66.9414C108.38 67.1963 108.323 67.4729 108.323 67.774C108.323 68.075 108.377 68.3516 108.488 68.6065C108.597 68.8614 108.751 69.0838 108.946 69.2709C109.142 69.4607 109.375 69.6071 109.641 69.7129C109.909 69.8186 110.199 69.8702 110.511 69.8702C110.823 69.8702 111.113 69.8187 111.376 69.7156C111.639 69.6126 111.87 69.4661 112.068 69.2763C112.266 69.0865 112.418 68.8641 112.526 68.6119C112.635 68.357 112.686 68.0777 112.686 67.774C112.686 67.4702 112.632 67.1882 112.526 66.936C112.418 66.6811 112.266 66.4587 112.068 66.2716ZM111.981 68.4031C111.9 68.5956 111.788 68.761 111.647 68.9048C111.506 69.0485 111.336 69.157 111.143 69.2356C110.95 69.3143 110.739 69.3522 110.514 69.3522C110.289 69.3522 110.072 69.3143 109.877 69.2356C109.684 69.157 109.513 69.0458 109.37 68.9048C109.226 68.761 109.112 68.5956 109.033 68.4031C108.952 68.2106 108.914 68.0017 108.914 67.7767C108.914 67.5516 108.955 67.3401 109.033 67.1502C109.115 66.9577 109.226 66.7923 109.37 66.6486C109.513 66.5048 109.684 66.3964 109.877 66.3177C110.069 66.2391 110.283 66.2011 110.514 66.2011C110.744 66.2011 110.95 66.2391 111.143 66.3177C111.336 66.3964 111.504 66.5075 111.647 66.6486C111.791 66.7923 111.902 66.9577 111.981 67.1502C112.062 67.3428 112.1 67.5516 112.1 67.7767C112.1 68.0017 112.06 68.2133 111.981 68.4031Z" fill="white"/>
<path d="M116.656 68.0331C116.656 68.4914 116.556 68.825 116.355 69.0365C116.154 69.248 115.867 69.3538 115.495 69.3538C115.124 69.3538 114.845 69.248 114.641 69.0365C114.44 68.825 114.34 68.4914 114.34 68.0331V65.7227H113.754V68.0575C113.754 68.6514 113.909 69.1043 114.218 69.4134C114.527 69.7226 114.95 69.8771 115.49 69.8771C116.03 69.8771 116.458 69.7226 116.764 69.4134C117.071 69.1043 117.225 68.6541 117.225 68.0575V65.7227H116.656V68.0331Z" fill="white"/>
<path d="M121.155 65.8935C120.9 65.7796 120.593 65.7227 120.233 65.7227H118.633V69.8283H119.219V68.5863H120.233C120.593 68.5863 120.9 68.5294 121.155 68.4128C121.41 68.2962 121.605 68.1334 121.741 67.9192C121.876 67.705 121.947 67.4501 121.947 67.1545C121.947 66.8589 121.879 66.6013 121.741 66.387C121.602 66.1728 121.407 66.0074 121.155 65.8935ZM121.071 67.8351C120.878 67.9951 120.593 68.0765 120.217 68.0765H119.219V66.2352H120.217C120.591 66.2352 120.875 66.3165 121.071 66.4765C121.263 66.6365 121.361 66.8643 121.361 67.1572C121.361 67.4501 121.263 67.6779 121.071 67.8379V67.8351Z" fill="white"/>
</svg>
